<svg width="80" height="80" viewBox="0 0 80 80" fill="none" xmlns="http://www.w3.org/2000/svg">
<circle cx="40" cy="40" r="40" fill="#41AED5"/>
<path d="M57.1429 34.4327C57.9306 34.4327 58.6041 34.7102 59.1633 35.2694C59.7224 35.8286 60 36.502 60 37.2898C60 38.0776 59.7224 38.751 59.1633 39.3102C58.6041 39.8694 57.9306 40.1469 57.1429 40.1469V48.7184C57.1429 49.4939 56.8612 50.1633 56.2939 50.7265C55.7265 51.2939 55.0571 51.5755 54.2857 51.5755C48.0816 46.4122 42.0367 43.5837 36.1592 43.0939C35.298 43.3755 34.6204 43.8694 34.1265 44.5673C33.6367 45.2653 33.4041 46.0163 33.4327 46.8122C33.4612 47.6082 33.7592 48.298 34.3265 48.8776C34.0286 49.3673 33.8571 49.8571 33.8122 50.3388C33.7673 50.8204 33.8122 51.2531 33.9469 51.6327C34.0816 52.0122 34.3306 52.4204 34.6939 52.8612C35.0571 53.302 35.4163 53.6735 35.7633 53.9755C36.1143 54.2816 36.5714 54.6571 37.1347 55.102C36.702 55.9633 35.8735 56.5837 34.6449 56.9551C33.4163 57.3265 32.1633 57.4122 30.8857 57.2122C29.6041 57.0122 28.6245 56.6 27.9388 55.9714C27.8327 55.6286 27.6163 54.9796 27.2816 54.0163C26.9469 53.0571 26.7102 52.3551 26.5673 51.9061C26.4245 51.4612 26.2531 50.7959 26.0531 49.9184C25.8531 49.0408 25.7388 48.2898 25.7184 47.6653C25.698 47.0408 25.7224 46.3061 25.7959 45.4653C25.8694 44.6245 26.0327 43.8041 26.2857 43H23.5714C22.5878 43 21.7469 42.649 21.049 41.951C20.351 41.2531 20 40.4122 20 39.4286V35.1429C20 34.1592 20.351 33.3184 21.049 32.6204C21.7469 31.9225 22.5878 31.5714 23.5714 31.5714H34.2857C40.7592 31.5714 47.4245 28.7143 54.2857 23C55.0612 23 55.7306 23.2816 56.2939 23.849C56.8612 24.4163 57.1429 25.0857 57.1429 25.8571V34.4327ZM54.2857 47.9143V26.6204C48.4245 31.1143 42.7102 33.6653 37.1429 34.2776V40.3061C42.751 40.9265 48.4653 43.4653 54.2857 47.9143Z" fill="white"/>
</svg>
