<svg width="80" height="80" viewBox="0 0 80 80" fill="none" xmlns="http://www.w3.org/2000/svg">
<circle cx="40" cy="40" r="40" fill="#F9B21A"/>
<path d="M44.1673 52.3102V50.8531V38.6653V33.6653H35.8327V38.6653V50.8531V52.3102C35.8327 52.7429 35.9878 53.0776 36.302 53.3143C36.6163 53.5469 37.0122 53.6653 37.498 53.6653H42.498C42.9837 53.6653 43.3837 53.5469 43.6939 53.3143C44.0122 53.0776 44.1673 52.7429 44.1673 52.3102ZM32.2898 30.3306H37.3673L34.0857 26.1388C33.6327 25.6 33.0367 25.3306 32.2898 25.3306C31.5959 25.3306 31.0041 25.5755 30.5184 26.0612C30.0327 26.5469 29.7878 27.1388 29.7878 27.8326C29.7878 28.5265 30.0327 29.1184 30.5184 29.6041C31.0082 30.0898 31.5959 30.3306 32.2898 30.3306ZM50.2082 27.8326C50.2082 27.1388 49.9633 26.5469 49.4776 26.0612C48.9918 25.5755 48.4 25.3306 47.7061 25.3306C46.9592 25.3306 46.3592 25.6 45.9102 26.1388L42.6531 30.3306H47.7061C48.4 30.3306 48.9918 30.0857 49.4776 29.6C49.9633 29.1143 50.2082 28.5265 50.2082 27.8326ZM60 34.498V42.8327C60 43.0775 59.9224 43.2735 59.7673 43.4327C59.6122 43.5878 59.4122 43.6653 59.1673 43.6653H56.6653V54.498C56.6653 55.1918 56.4204 55.7837 55.9347 56.2694C55.449 56.7551 54.8571 57 54.1633 57H25.8327C25.1388 57 24.5469 56.7551 24.0612 56.2694C23.5755 55.7837 23.3306 55.1918 23.3306 54.498V43.6653H20.8327C20.5878 43.6653 20.3918 43.5878 20.2327 43.4327C20.0776 43.2776 20 43.0775 20 42.8327V34.498C20 34.2531 20.0776 34.0571 20.2327 33.898C20.3878 33.7388 20.5878 33.6653 20.8327 33.6653H32.2898C30.6735 33.6653 29.298 33.098 28.1633 31.9592C27.0245 30.8204 26.4571 29.4449 26.4571 27.8326C26.4571 26.2204 27.0245 24.8408 28.1633 23.7061C29.302 22.5673 30.6776 22 32.2898 22C34.1469 22 35.6041 22.6694 36.6653 24.0041L40 28.302L43.3347 24.0041C44.3918 22.6653 45.8531 22 47.7102 22C49.3265 22 50.702 22.5673 51.8367 23.7061C52.9714 24.8449 53.5429 26.2204 53.5429 27.8326C53.5429 29.4449 52.9755 30.8245 51.8367 31.9592C50.698 33.0939 49.3224 33.6653 47.7102 33.6653H59.1673C59.4122 33.6653 59.6082 33.7429 59.7673 33.898C59.9224 34.0571 60 34.2531 60 34.498Z" fill="white"/>
</svg>
