<svg width="80" height="80" viewBox="0 0 80 80" fill="none" xmlns="http://www.w3.org/2000/svg">
<circle cx="40" cy="40" r="40" fill="#9B8EF7"/>
<path d="M57.936 52.592C57.936 54.632 57.316 56.244 56.072 57.428C54.828 58.612 53.18 59.2 51.12 59.2H28.816C26.756 59.2 25.108 58.608 23.864 57.428C22.62 56.244 22 54.632 22 52.592C22 51.692 22.028 50.808 22.088 49.952C22.148 49.092 22.268 48.164 22.444 47.172C22.624 46.176 22.848 45.252 23.12 44.404C23.392 43.552 23.76 42.724 24.216 41.916C24.676 41.108 25.204 40.42 25.8 39.848C26.396 39.28 27.124 38.824 27.984 38.484C28.844 38.144 29.792 37.972 30.828 37.972C30.98 37.972 31.34 38.156 31.9 38.52C32.46 38.884 33.096 39.296 33.8 39.744C34.508 40.196 35.424 40.604 36.556 40.968C37.688 41.332 38.824 41.516 39.964 41.516C41.104 41.516 42.24 41.332 43.372 40.968C44.504 40.604 45.424 40.192 46.128 39.744C46.836 39.292 47.468 38.884 48.028 38.52C48.588 38.156 48.948 37.972 49.1 37.972C50.136 37.972 51.088 38.144 51.944 38.484C52.804 38.824 53.532 39.28 54.128 39.848C54.724 40.416 55.252 41.108 55.712 41.916C56.172 42.724 56.536 43.552 56.808 44.404C57.08 45.256 57.304 46.176 57.484 47.172C57.664 48.168 57.78 49.096 57.84 49.952C57.904 50.808 57.936 51.688 57.936 52.592ZM49.768 29.8C49.768 32.504 48.812 34.816 46.896 36.728C44.984 38.644 42.672 39.6 39.968 39.6C37.264 39.6 34.952 38.644 33.04 36.728C31.124 34.816 30.168 32.504 30.168 29.8C30.168 27.096 31.124 24.784 33.04 22.872C34.952 20.956 37.264 20 39.968 20C42.672 20 44.984 20.956 46.896 22.872C48.812 24.784 49.768 27.096 49.768 29.8Z" fill="white"/>
</svg>
